<svg width="2500" height="2500" viewBox="0 0 2500 2500" fill="none" xmlns="http://www.w3.org/2000/svg">
<rect width="2500" height="2500" rx="500" fill="black"/>
<path fill-rule="evenodd" clip-rule="evenodd" d="M690.118 732.128C756.428 732.128 810.182 678.374 810.182 612.064C810.182 545.755 756.428 492 690.118 492C623.808 492 570.054 545.755 570.054 612.064C570.054 678.374 623.808 732.128 690.118 732.128ZM622.577 987.265V846.083H470V815.344H622.577C715.422 815.344 749.833 815.344 784.894 772.179V963.154H788.789C840.731 867.666 921.889 772.179 1066.67 772.179C1190.04 772.179 1314.05 806.842 1331.58 980.158H1335.47C1374.43 868.974 1470.52 770.217 1615.3 772.179C1799.99 774.021 1869.66 873.857 1877.5 987.265H1878.26V1008.88C1878.26 1009.12 1878.26 1009.35 1878.26 1009.59V1517.55L1878.26 1658.73H2030.83V1689.47L1878.26 1689.47C1785.41 1689.47 1751 1689.47 1715.94 1732.63V1541.66H1712.04C1660.1 1637.15 1578.94 1732.63 1434.16 1732.63C1310.8 1732.63 1186.79 1697.97 1169.26 1524.66H1165.36C1126.41 1635.84 1030.32 1734.6 885.529 1732.63C700.839 1730.79 631.17 1630.96 623.335 1517.55H622.577V1495.93C622.577 1495.69 622.577 1495.46 622.577 1495.22L622.577 987.265H622.577ZM784.894 1517.55L784.893 1530.54C784.893 1670.5 846.573 1701.9 919.94 1701.9C1032.26 1701.9 1130.3 1579.59 1169.26 1442.9L1169.26 987.265H1169.26V936.993C1169.26 839.543 1121.21 802.918 1043.95 802.918C928.381 802.918 841.38 894.481 784.894 1032.48V1517.55ZM1331.58 1517.55L1331.57 1567.82C1331.57 1665.27 1379.62 1701.9 1456.88 1701.9C1572.45 1701.9 1659.45 1610.33 1715.94 1472.33L1715.94 987.265L1715.94 974.272C1715.94 834.311 1654.26 802.918 1580.89 802.918C1468.57 802.918 1370.53 925.22 1331.58 1061.91V1517.55ZM1920.78 1887.75C1920.78 1954.06 1867.02 2007.81 1800.71 2007.81C1734.4 2007.81 1680.65 1954.06 1680.65 1887.75C1680.65 1821.44 1734.4 1767.68 1800.71 1767.68C1867.02 1767.68 1920.78 1821.44 1920.78 1887.75Z" fill="white"/>
</svg>
